<?xml version="1.0" standalone="no"?>
<!DOCTYPE svg PUBLIC "-//W3C//DTD SVG 20010904//EN"
 "http://www.w3.org/TR/2001/REC-SVG-20010904/DTD/svg10.dtd">
<svg version="1.0" xmlns="http://www.w3.org/2000/svg"
 width="96.000000pt" height="96.000000pt" viewBox="0 0 96.000000 96.000000"
 preserveAspectRatio="xMidYMid meet">

<g transform="translate(0.000000,96.000000) scale(0.100000,-0.100000)"
fill="#000000" stroke="none">
<path d="M202 762 c-147 -143 -203 -203 -202 -219 0 -36 34 -63 80 -63 l40 0
0 -120 c0 -191 12 -202 214 -198 110 3 130 6 140 21 8 12 8 22 0 35 -9 14 -32
18 -140 22 l-129 5 -3 144 c-1 82 -7 150 -13 157 -6 7 -25 14 -42 16 -31 3
-29 6 121 152 l153 149 133 -131 c130 -129 157 -147 184 -120 20 20 14 43 -23
78 -34 32 -34 35 -37 123 -2 73 -6 92 -20 101 -31 19 -52 -4 -58 -63 l-5 -52
-80 81 c-44 44 -86 80 -95 80 -8 0 -106 -89 -218 -198z"/>
<path d="M692 509 c-49 -15 -106 -77 -122 -132 -17 -61 -9 -115 29 -191 36
-72 135 -186 161 -186 27 0 126 115 163 190 78 157 9 314 -144 325 -29 2 -69
0 -87 -6z m123 -134 c50 -49 15 -135 -55 -135 -41 0 -80 39 -80 80 0 41 39 80
80 80 19 0 40 -9 55 -25z"/>
</g>
</svg>
