<?xml version="1.0" standalone="no"?>
<!DOCTYPE svg PUBLIC "-//W3C//DTD SVG 20010904//EN"
 "http://www.w3.org/TR/2001/REC-SVG-20010904/DTD/svg10.dtd">
<svg version="1.0" xmlns="http://www.w3.org/2000/svg"
 width="512.000000pt" height="512.000000pt" viewBox="0 0 512.000000 512.000000"
 preserveAspectRatio="xMidYMid meet">

<g transform="translate(0.000000,512.000000) scale(0.100000,-0.100000)"
fill="#000000" stroke="none">
<path d="M2389 4979 c-207 -14 -435 -62 -640 -133 -123 -44 -373 -165 -479
-232 -513 -326 -889 -831 -1046 -1404 -280 -1019 121 -2089 1001 -2674 122
-81 384 -213 520 -260 548 -192 1158 -185 1683 20 561 219 1009 620 1283 1149
160 308 246 618 269 968 61 964 -464 1877 -1329 2312 -297 149 -601 232 -941
255 -158 11 -153 11 -321 -1z m16 -529 c226 -30 236 -30 688 -30 483 0 499 -1
539 -46 9 -11 20 -35 25 -54 l9 -34 250 -33 c137 -17 263 -39 280 -47 18 -8
38 -30 48 -51 20 -42 26 14 -131 -1155 l-77 -575 -6 -755 -5 -755 -24 -52
c-27 -61 -84 -116 -150 -147 l-46 -21 -1225 0 -1225 0 -53 24 c-69 31 -137
106 -157 174 -22 73 -23 1679 -1 1731 19 46 51 66 108 66 l48 0 0 824 c0 820
0 823 21 850 43 55 51 56 400 56 l321 0 35 30 c22 20 44 30 66 30 18 0 136
-13 262 -30z"/>
<path d="M2275 4130 c-44 -17 -50 -36 -53 -184 l-4 -141 24 23 c13 12 30 22
36 22 7 0 12 16 12 40 l0 40 180 0 180 0 0 -37 c0 -31 5 -41 29 -54 l29 -17 6
92 c14 195 14 199 -14 213 -29 15 -391 18 -425 3z"/>
<path d="M2354 3827 c-3 -9 -4 -28 -2 -44 2 -22 8 -28 28 -28 23 0 25 4 25 40
0 34 -3 40 -23 43 -13 2 -24 -3 -28 -11z m46 -21 c0 -3 -4 -8 -10 -11 -5 -3
-10 -1 -10 4 0 6 5 11 10 11 6 0 10 -2 10 -4z"/>
<path d="M2534 3827 c-3 -9 -4 -28 -2 -44 2 -22 8 -28 28 -28 23 0 25 4 25 40
0 34 -3 40 -23 43 -13 2 -24 -3 -28 -11z m46 -17 c0 -5 -4 -10 -10 -10 -5 0
-10 5 -10 10 0 6 5 10 10 10 6 0 10 -4 10 -10z"/>
<path d="M2460 3725 c0 -14 5 -25 10 -25 6 0 10 11 10 25 0 14 -4 25 -10 25
-5 0 -10 -11 -10 -25z"/>
<path d="M2410 3652 c0 -32 87 -45 110 -17 18 22 4 31 -25 15 -19 -10 -30 -11
-50 -2 -31 14 -35 15 -35 4z"/>
<path d="M1758 3129 c-10 -5 -18 -21 -18 -34 0 -53 -17 -52 747 -47 452 3 713
8 721 14 19 16 14 45 -10 62 -20 14 -105 16 -723 16 -457 -1 -706 -4 -717 -11z"/>
<path d="M2656 2631 c-23 -25 -17 -52 13 -67 22 -11 219 -10 277 1 30 6 37 42
13 66 -17 17 -34 19 -152 19 -119 0 -136 -2 -151 -19z"/>
<path d="M2660 2018 c0 -320 3 -408 13 -422 25 -34 62 -22 137 43 39 33 80 61
90 61 11 0 51 -27 91 -60 71 -59 79 -64 109 -60 38 4 40 21 40 432 l0 398
-163 0 c-90 0 -198 3 -240 6 l-77 7 0 -405z"/>
</g>
</svg>
