<?xml version="1.0" standalone="no"?>
<!DOCTYPE svg PUBLIC "-//W3C//DTD SVG 20010904//EN"
 "http://www.w3.org/TR/2001/REC-SVG-20010904/DTD/svg10.dtd">
<svg version="1.0" xmlns="http://www.w3.org/2000/svg"
 width="100.000000pt" height="100.000000pt" viewBox="0 0 100.000000 100.000000"
 preserveAspectRatio="xMidYMid meet">

<g transform="translate(0.000000,100.000000) scale(0.100000,-0.100000)"
fill="#000000" stroke="none">
<path d="M411 906 c-93 -31 -140 -113 -126 -222 6 -51 5 -57 -15 -71 -18 -13
-21 -22 -17 -51 7 -37 32 -72 53 -72 7 0 18 -17 24 -39 5 -21 19 -50 30 -64
38 -48 29 -60 -75 -101 -62 -25 -103 -48 -119 -67 -27 -32 -43 -86 -29 -100 5
-5 161 -8 369 -7 l359 3 -2 33 c-2 59 -42 96 -148 138 -104 41 -113 53 -75
101 11 14 25 43 30 64 6 22 17 39 24 39 21 0 46 35 53 72 4 29 1 38 -17 51
-19 14 -21 21 -15 70 11 85 -16 141 -83 181 -11 6 -32 20 -47 30 -34 25 -116
30 -174 12z m216 -193 c15 -27 33 -64 38 -83 7 -22 17 -35 27 -35 9 0 20 -3
23 -7 14 -14 -6 -57 -32 -70 -18 -9 -30 -27 -39 -57 -7 -24 -22 -54 -35 -67
-18 -19 -21 -31 -16 -68 6 -39 3 -49 -19 -76 -22 -26 -33 -30 -74 -30 -41 0
-52 4 -74 30 -22 27 -25 37 -19 76 5 38 2 48 -17 69 -13 13 -28 46 -35 72 -9
37 -17 49 -34 51 -41 6 -56 77 -16 77 13 0 22 10 28 31 9 29 14 33 71 44 74
14 148 45 172 71 9 10 18 19 20 19 1 0 15 -21 31 -47z"/>
</g>
</svg>
